<svg xmlns="http://www.w3.org/2000/svg" style="display:none">
<symbol id="home" viewBox="0 0 24 24"><path d="m3 11 9-8 9 8"/><path d="M5 10v10h14V10"/><path d="M9 20v-6h6v6"/></symbol>
<symbol id="package" viewBox="0 0 24 24"><path d="m12 3 9 5-9 5-9-5 9-5Z"/><path d="m3 8 9 5 9-5"/><path d="M3 8v8l9 5 9-5V8"/><path d="M12 13v8"/></symbol>
<symbol id="log-in" viewBox="0 0 24 24"><path d="M15 3h4a2 2 0 0 1 2 2v14a2 2 0 0 1-2 2h-4"/><path d="m10 17 5-5-5-5"/><path d="M15 12H3"/></symbol>
<symbol id="log-out" viewBox="0 0 24 24"><path d="M9 21H5a2 2 0 0 1-2-2V5a2 2 0 0 1 2-2h4"/><path d="m16 17 5-5-5-5"/><path d="M21 12H9"/></symbol>
<symbol id="folder" viewBox="0 0 24 24"><path d="M3 7a2 2 0 0 1 2-2h5l2 2h7a2 2 0 0 1 2 2v9a2 2 0 0 1-2 2H5a2 2 0 0 1-2-2Z"/></symbol>
<symbol id="chart" viewBox="0 0 24 24"><path d="M4 20V10"/><path d="M10 20V4"/><path d="M16 20v-7"/><path d="M22 20H2"/></symbol>
<symbol id="users" viewBox="0 0 24 24"><path d="M16 21v-2a4 4 0 0 0-4-4H6a4 4 0 0 0-4 4v2"/><circle cx="9" cy="7" r="4"/><path d="M22 21v-2a4 4 0 0 0-3-3.87"/><path d="M16 3.13a4 4 0 0 1 0 7.75"/></symbol>
<symbol id="user" viewBox="0 0 24 24"><circle cx="12" cy="8" r="4"/><path d="M4 21a8 8 0 0 1 16 0"/></symbol>
<symbol id="user-plus" viewBox="0 0 24 24"><circle cx="9" cy="8" r="4"/><path d="M2 21a7 7 0 0 1 14 0"/><path d="M19 8v6"/><path d="M16 11h6"/></symbol>
<symbol id="clipboard" viewBox="0 0 24 24"><rect x="5" y="4" width="14" height="17" rx="2"/><path d="M9 4.5V3h6v1.5"/><path d="M9 9h6M9 13h6M9 17h4"/></symbol>
<symbol id="database" viewBox="0 0 24 24"><ellipse cx="12" cy="5" rx="8" ry="3"/><path d="M4 5v6c0 1.7 3.6 3 8 3s8-1.3 8-3V5"/><path d="M4 11v6c0 1.7 3.6 3 8 3s8-1.3 8-3v-6"/></symbol>
<symbol id="refresh" viewBox="0 0 24 24"><path d="M20 11a8 8 0 1 0 2 5"/><path d="M20 4v7h-7"/></symbol>
<symbol id="moon" viewBox="0 0 24 24"><path d="M21 12.8A9 9 0 1 1 11.2 3 7 7 0 0 0 21 12.8Z"/></symbol>
<symbol id="download" viewBox="0 0 24 24"><path d="M12 3v12"/><path d="m7 10 5 5 5-5"/><path d="M5 21h14"/></symbol>
<symbol id="printer" viewBox="0 0 24 24"><path d="M6 9V3h12v6"/><rect x="6" y="14" width="12" height="7"/><path d="M6 18H4a2 2 0 0 1-2-2v-5a2 2 0 0 1 2-2h16a2 2 0 0 1 2 2v5a2 2 0 0 1-2 2h-2"/></symbol>
<symbol id="file-text" viewBox="0 0 24 24"><path d="M6 2h8l4 4v16H6Z"/><path d="M14 2v5h5"/><path d="M9 13h6M9 17h6"/></symbol>
<symbol id="plus" viewBox="0 0 24 24"><path d="M12 5v14M5 12h14"/></symbol>
<symbol id="camera" viewBox="0 0 24 24"><path d="M4 7h3l2-3h6l2 3h3v13H4Z"/><circle cx="12" cy="13" r="4"/></symbol>
<symbol id="save" viewBox="0 0 24 24"><path d="M5 3h12l2 2v16H5Z"/><path d="M8 3v6h8V3"/><path d="M8 21v-7h8v7"/></symbol>
<symbol id="switch-camera" viewBox="0 0 24 24"><path d="M4 7h3l2-3h6l2 3h3v13H4Z"/><path d="m9 12-2 2 2 2M15 12l2 2-2 2"/></symbol>
<symbol id="zap" viewBox="0 0 24 24"><path d="m13 2-9 12h7l-1 8 9-12h-7Z"/></symbol>
<symbol id="lock" viewBox="0 0 24 24"><rect x="4" y="10" width="16" height="11" rx="2"/><path d="M8 10V7a4 4 0 0 1 8 0v3"/></symbol>
</svg>